<svg width="296" height="180" viewBox="0 0 296 180" fill="none" xmlns="http://www.w3.org/2000/svg">
<rect width="296" height="180" fill="url(#paint0_linear_72_9)"/>
<path d="M124.479 65.0569H136.78V102.841C136.78 107.083 135.767 110.796 133.741 113.977C131.733 117.159 128.92 119.64 125.303 121.421C121.686 123.182 117.472 124.063 112.661 124.063C107.831 124.063 103.608 123.182 99.9905 121.421C96.3731 119.64 93.5606 117.159 91.553 113.977C89.5454 110.796 88.5417 107.083 88.5417 102.841V65.0569H100.843V101.79C100.843 104.006 101.326 105.975 102.292 107.699C103.277 109.422 104.659 110.777 106.439 111.761C108.22 112.746 110.294 113.239 112.661 113.239C115.047 113.239 117.121 112.746 118.883 111.761C120.663 110.777 122.036 109.422 123.002 107.699C123.987 105.975 124.479 104.006 124.479 101.79V65.0569ZM169.884 79.6024V88.6933H143.606V79.6024H169.884ZM149.571 69.1478H161.674V109.83C161.674 110.947 161.844 111.818 162.185 112.443C162.526 113.049 163 113.475 163.606 113.722C164.231 113.968 164.95 114.091 165.765 114.091C166.333 114.091 166.901 114.044 167.469 113.949C168.037 113.835 168.473 113.75 168.776 113.693L170.679 122.699C170.073 122.888 169.221 123.106 168.123 123.352C167.024 123.618 165.689 123.778 164.117 123.835C161.2 123.949 158.643 123.561 156.446 122.671C154.268 121.78 152.573 120.398 151.361 118.523C150.149 116.648 149.553 114.28 149.571 111.421V69.1478ZM218.449 79.6024L203.194 123.239H189.557L174.302 79.6024H187.086L196.148 110.824H196.603L205.637 79.6024H218.449Z" fill="white"/>
<defs>
<linearGradient id="paint0_linear_72_9" x1="244.217" y1="10.0559" x2="63.6555" y2="240.554" gradientUnits="userSpaceOnUse">
<stop stop-color="#DE3672"/>
<stop offset="0.973796" stop-color="#A01DDE" stop-opacity="0.444463"/>
</linearGradient>
</defs>
</svg>
